# xmcd
#
# Track frame offsets: 
#        150
#        26835
#        54752
#        85042
#        116102
#        136352
#        157872
#        205192
#
# Disc length: 3074 seconds
#
# Revision: 2
# Processed by: cddbd v1.5.2PL0 Copyright (c) Steve Scherf et al.
# Submitted via: ExactAudioCopy v1.0b4
#
DISCID=5f0c0008
DTITLE=Ron Levy's Wild Kingdom - Zim Zam Zoom
DYEAR=1900
DGENRE=Blues
TTITLE0=zim zam zoom
TTITLE1=c.c. rider
TTITLE2=lost tribes
TTITLE3=u rockin' me
TTITLE4=sons of abraham
TTITLE5=silver cannonball
TTITLE6=last go round
TTITLE7=lonely avenue
EXTD=
EXTT0=
EXTT1=
EXTT2=
EXTT3=
EXTT4=
EXTT5=
EXTT6=
EXTT7=
PLAYORDER=
